<?xml version="1.0" standalone="no"?>
<!DOCTYPE svg PUBLIC "-//W3C//DTD SVG 20010904//EN"
 "http://www.w3.org/TR/2001/REC-SVG-20010904/DTD/svg10.dtd">
<svg version="1.0" xmlns="http://www.w3.org/2000/svg"
 width="1183.000000pt" height="1183.000000pt" viewBox="0 0 1183.000000 1183.000000"
 preserveAspectRatio="xMidYMid meet">
<metadata>
Created by potrace 1.14, written by Peter Selinger 2001-2017
</metadata>
<g transform="translate(0.000000,1183.000000) scale(0.100000,-0.100000)"
fill="#000000" stroke="none">
<path d="M7747 11094 c-1 -1 -436 -4 -967 -8 -1124 -6 -1351 -11 -1550 -32
-36 -4 -72 -6 -80 -6 -8 0 -49 -5 -90 -10 -41 -5 -86 -11 -100 -13 -52 -6
-126 -17 -145 -21 -11 -2 -36 -6 -55 -9 -19 -3 -46 -7 -60 -10 -14 -4 -36 -8
-50 -11 -68 -14 -251 -57 -299 -71 -29 -8 -59 -16 -65 -17 -6 -1 -15 -4 -21
-8 -5 -3 -26 -9 -45 -13 -19 -4 -39 -11 -45 -15 -5 -4 -26 -11 -45 -16 -45
-10 -41 -9 -71 -21 -14 -6 -44 -17 -67 -24 -23 -7 -42 -16 -42 -20 0 -5 -6 -6
-14 -3 -7 3 -20 -1 -27 -8 -8 -7 -25 -15 -39 -17 -14 -1 -28 -8 -32 -15 -4 -6
-8 -8 -8 -3 0 4 -18 -2 -40 -13 -21 -11 -46 -20 -55 -20 -8 0 -15 -5 -15 -12
0 -6 -3 -9 -6 -6 -3 4 -31 -6 -62 -21 -31 -16 -81 -39 -109 -51 -29 -13 -53
-28 -53 -33 0 -6 -3 -8 -6 -4 -7 7 -195 -90 -205 -106 -3 -5 -10 -8 -15 -8 -5
1 -16 -4 -25 -11 -8 -7 -22 -14 -30 -16 -8 -2 -19 -10 -26 -18 -6 -9 -14 -15
-17 -15 -20 3 -26 0 -21 -9 4 -6 3 -10 -2 -9 -18 3 -30 -2 -51 -21 -12 -12
-22 -18 -22 -16 0 6 -60 -32 -95 -60 -11 -8 -37 -25 -57 -36 -20 -12 -34 -26
-31 -31 4 -6 0 -8 -10 -4 -10 3 -17 2 -17 -3 0 -5 -9 -12 -20 -15 -11 -4 -18
-11 -15 -16 4 -5 0 -9 -8 -9 -7 0 -22 -8 -33 -17 -10 -10 -37 -30 -59 -45 -22
-16 -55 -41 -74 -58 -18 -16 -36 -30 -40 -30 -3 -1 -31 -23 -61 -50 -30 -28
-58 -50 -62 -50 -5 0 -8 -8 -8 -17 0 -9 -3 -13 -7 -10 -3 4 -26 -13 -50 -37
-23 -24 -43 -42 -43 -39 0 2 -51 -46 -112 -108 -62 -62 -112 -116 -111 -121 2
-4 -1 -8 -7 -8 -11 0 -63 -55 -150 -160 -34 -41 -69 -84 -78 -95 -68 -81 -92
-114 -92 -124 0 -6 -4 -11 -8 -11 -5 0 -22 -19 -38 -42 -105 -149 -144 -208
-139 -208 3 0 -4 -9 -15 -20 -12 -12 -18 -25 -15 -30 4 -6 2 -10 -3 -10 -10 0
-40 -41 -44 -61 -2 -7 -9 -21 -17 -30 -32 -40 -135 -229 -124 -229 4 0 -2 -7
-13 -15 -10 -8 -15 -15 -10 -15 5 0 1 -9 -9 -20 -10 -11 -15 -20 -11 -20 4 0
-1 -12 -12 -27 -11 -16 -20 -31 -21 -35 -1 -4 -15 -35 -31 -69 -16 -34 -26
-67 -23 -72 3 -6 2 -7 -4 -4 -7 5 -29 -36 -38 -73 -1 -3 -6 -16 -12 -30 -37
-85 -76 -187 -78 -200 -1 -8 -9 -31 -18 -50 -8 -19 -27 -75 -42 -125 -15 -49
-29 -97 -32 -105 -19 -49 -73 -263 -98 -385 -8 -38 -17 -81 -20 -95 -3 -14 -7
-38 -9 -55 -2 -16 -6 -41 -10 -55 -4 -14 -8 -43 -10 -65 -3 -22 -5 -40 -6 -40
-1 0 -3 -13 -4 -30 -2 -16 -6 -48 -9 -70 -11 -67 -23 -199 -32 -340 -14 -225
-19 -1075 -18 -2820 2 -1938 6 -2558 16 -2602 20 -80 71 -111 196 -120 114 -8
3992 -7 4281 1 124 3 347 8 495 11 361 7 568 13 636 19 31 3 98 8 150 11 52 4
110 8 129 10 19 2 63 7 96 10 34 3 71 7 82 10 11 2 42 7 69 11 26 3 57 9 68
11 11 3 27 5 35 5 15 0 140 22 190 34 14 3 34 7 45 9 11 3 29 7 40 9 11 2 58
14 105 26 47 12 90 23 95 24 6 1 57 17 115 35 58 18 107 33 110 33 3 0 13 4
23 10 10 5 26 11 35 13 31 7 87 30 93 38 3 5 10 8 15 7 14 -4 104 33 104 42 0
4 7 5 15 2 8 -4 15 -2 15 3 0 5 6 10 13 10 6 0 39 13 72 29 33 15 63 27 68 26
4 -1 7 3 7 10 0 6 3 8 7 5 3 -4 13 -1 21 5 8 7 42 25 74 39 33 15 69 34 79 43
11 9 19 13 19 11 0 -8 111 54 134 74 10 9 21 16 25 15 3 -1 15 4 26 11 85 51
130 81 133 87 2 5 8 8 13 8 7 0 99 59 144 92 5 4 48 36 95 70 79 57 121 91
254 202 242 201 520 498 737 786 230 306 467 728 608 1083 189 476 295 952
326 1472 7 111 7 5434 0 5467 -9 45 -25 82 -43 99 -46 42 -25 41 -1432 45
-740 3 -1434 5 -1543 7 -109 1 -199 1 -200 1z m2219 -1016 c19 -20 26 -615 26
-2418 1 -1640 -6 -2048 -37 -2275 -2 -16 -7 -52 -10 -80 -3 -27 -8 -61 -10
-75 -3 -14 -7 -45 -9 -70 -3 -25 -12 -81 -21 -125 -25 -122 -28 -139 -29 -157
0 -10 -3 -18 -7 -18 -3 0 -9 -17 -12 -37 -4 -21 -7 -42 -8 -48 -1 -5 -12 -43
-25 -84 -13 -41 -21 -78 -18 -82 2 -4 1 -9 -3 -11 -5 -1 -19 -37 -32 -78 -13
-41 -43 -123 -66 -183 -24 -59 -40 -107 -37 -107 4 0 2 -4 -4 -8 -5 -4 -18
-25 -28 -47 -9 -22 -24 -52 -32 -67 -8 -16 -12 -28 -9 -28 4 0 -1 -7 -9 -16
-9 -8 -14 -20 -11 -25 4 -5 2 -9 -3 -9 -10 0 -48 -80 -44 -93 1 -5 -1 -6 -6
-3 -6 4 -36 -48 -36 -64 0 -3 -8 -14 -18 -24 -9 -10 -15 -23 -12 -28 3 -4 0
-8 -6 -8 -6 0 -16 -12 -23 -27 -6 -16 -20 -37 -29 -47 -10 -10 -15 -22 -13
-26 3 -5 -2 -11 -11 -14 -9 -4 -14 -9 -11 -12 3 -4 -3 -15 -13 -27 -11 -11
-16 -25 -13 -31 3 -6 3 -8 -2 -4 -7 7 -28 -19 -87 -105 -7 -11 -21 -29 -31
-40 -47 -56 -72 -90 -69 -98 1 -5 -1 -8 -5 -7 -5 2 -9 -1 -10 -5 -1 -5 -13
-17 -28 -28 -14 -12 -23 -25 -20 -30 4 -5 -1 -9 -9 -9 -8 0 -22 -12 -30 -28
-8 -15 -15 -24 -16 -20 0 4 -19 -13 -42 -39 -24 -25 -42 -50 -40 -55 1 -4 -4
-7 -10 -6 -7 2 -12 -3 -10 -10 1 -6 -4 -11 -10 -10 -7 2 -12 -3 -10 -10 1 -6
-4 -11 -10 -10 -7 2 -12 -3 -10 -10 1 -8 -2 -11 -7 -8 -5 3 -23 -10 -40 -29
-17 -20 -31 -33 -31 -29 0 4 -10 -4 -23 -17 -12 -13 -44 -42 -70 -64 -26 -22
-60 -51 -74 -63 -14 -13 -66 -53 -114 -89 -49 -36 -89 -70 -89 -74 0 -5 -3 -8
-7 -7 -9 3 -167 -102 -171 -114 -2 -4 -7 -6 -12 -3 -4 3 -13 -2 -20 -10 -7 -8
-19 -15 -26 -15 -8 0 -14 -3 -14 -8 0 -4 -17 -16 -37 -27 -21 -11 -40 -22 -43
-25 -3 -4 -22 -14 -42 -23 -21 -10 -38 -22 -38 -28 0 -6 -4 -8 -8 -5 -5 3 -21
-4 -38 -15 -16 -11 -54 -31 -84 -46 -30 -15 -58 -32 -62 -38 -4 -5 -8 -7 -8
-3 0 4 -26 -6 -57 -22 -32 -17 -63 -30 -70 -30 -7 0 -13 -4 -13 -10 0 -5 -9
-10 -19 -10 -11 0 -26 -7 -34 -15 -8 -8 -17 -11 -21 -8 -3 3 -11 1 -18 -4 -7
-5 -33 -17 -58 -26 -25 -9 -58 -22 -75 -28 -16 -7 -34 -13 -40 -14 -5 -2 -55
-17 -111 -34 -56 -17 -106 -31 -112 -31 -6 0 -23 -5 -39 -11 -15 -7 -40 -13
-54 -15 -14 -2 -55 -11 -90 -19 -35 -9 -86 -18 -113 -21 -28 -3 -53 -7 -58
-10 -4 -3 -34 -8 -66 -10 -31 -3 -68 -7 -82 -10 -70 -13 -352 -26 -545 -24
-88 1 -1079 2 -2202 2 l-2043 2 0 20 c0 12 -2 365 -5 786 -3 421 -7 1058 -10
1415 -11 1286 1 2402 29 2670 14 131 17 162 21 175 2 8 7 35 10 60 3 25 8 52
11 61 3 10 7 30 9 45 2 16 12 58 20 94 9 36 18 72 20 80 16 72 84 270 130 380
31 74 57 140 58 145 1 6 5 12 8 15 12 10 49 90 49 106 0 10 3 14 7 11 7 -7 38
51 35 66 -1 4 2 7 7 7 10 0 27 39 23 53 -1 5 1 6 6 3 5 -3 14 6 20 19 6 13 23
43 38 67 15 24 26 45 25 47 -2 2 1 7 6 10 21 15 52 64 46 74 -3 5 -2 7 4 4 5
-3 18 8 28 26 10 18 21 34 25 37 12 11 71 90 67 90 -3 0 7 13 21 28 15 15 47
52 71 81 25 29 51 60 59 67 7 8 11 14 8 14 -3 0 15 19 39 42 24 23 41 47 38
53 -4 5 -3 7 1 3 11 -9 36 14 28 26 -3 5 0 6 5 3 12 -7 36 16 28 26 -3 4 -2 5
1 3 8 -6 120 106 116 116 -1 5 4 7 10 6 7 -2 12 3 10 10 -1 8 1 11 6 8 4 -2
33 19 64 47 31 29 65 57 75 64 10 6 17 16 15 22 -1 6 4 11 11 11 7 0 28 13 46
29 33 30 60 51 119 94 17 13 30 27 27 30 -3 4 -2 5 1 2 8 -6 94 55 94 67 0 5
4 7 8 4 5 -3 18 3 28 12 10 10 38 29 61 42 23 13 40 27 37 32 -3 5 -2 8 3 7
15 -2 53 13 53 22 0 5 4 9 10 9 12 0 113 61 121 73 3 5 9 8 13 8 20 -3 26 0
20 12 -4 6 -4 9 1 5 6 -6 178 75 195 92 3 3 14 7 25 8 11 2 22 8 23 13 2 5 9
9 17 9 11 0 40 12 150 60 17 7 35 14 40 16 6 1 62 20 125 41 63 22 156 50 205
63 50 12 97 25 105 27 8 3 29 7 45 9 17 2 37 7 45 11 8 3 22 7 30 8 14 1 83
13 125 21 11 3 38 7 60 9 22 3 56 7 75 10 57 8 140 16 214 20 38 3 70 6 72 7
4 5 4565 0 4570 -4z"/>
<path d="M9133 9829 c-36 -8 -68 -21 -73 -28 -4 -7 -10 -12 -14 -11 -16 4 -65
-23 -59 -33 3 -6 1 -7 -5 -3 -6 3 -25 -7 -41 -23 -17 -17 -31 -28 -31 -26 0 3
-19 -17 -42 -43 -24 -26 -46 -49 -49 -52 -15 -13 -68 -120 -82 -166 -20 -68
-14 -172 14 -243 13 -31 25 -58 28 -61 3 -3 12 -17 20 -32 14 -27 113 -128
126 -128 3 0 15 -9 27 -20 12 -10 25 -17 30 -14 4 3 8 1 8 -4 0 -9 101 -47
152 -58 67 -14 236 4 266 28 6 6 12 8 12 4 0 -11 84 38 119 69 54 48 81 79 81
92 0 7 4 13 9 13 9 0 43 82 47 115 1 11 6 31 11 45 9 23 9 164 0 200 -17 73
-93 223 -109 214 -4 -3 -8 1 -8 8 -1 26 -123 121 -170 132 -3 1 -14 7 -25 13
-11 6 -23 11 -27 12 -5 1 -9 1 -10 2 -54 16 -138 15 -205 -2z"/>
<path d="M5787 9543 c-2 -1 -47 -4 -102 -8 -99 -5 -151 -10 -210 -19 -16 -2
-55 -7 -85 -11 -61 -8 -85 -13 -85 -15 0 -1 -11 -3 -25 -5 -59 -8 -91 -15
-190 -40 -143 -36 -272 -75 -287 -87 -7 -6 -13 -8 -13 -5 0 7 -135 -39 -165
-56 -11 -6 -22 -12 -25 -12 -17 -2 -126 -51 -132 -59 -4 -6 -8 -7 -8 -2 0 4
-11 1 -25 -8 -14 -9 -25 -13 -25 -9 0 5 -4 4 -8 -2 -4 -5 -35 -23 -69 -39 -35
-16 -63 -33 -63 -38 0 -4 -3 -7 -7 -6 -11 3 -97 -43 -105 -56 -5 -6 -8 -7 -8
-1 0 6 -7 1 -16 -10 -8 -11 -18 -19 -22 -18 -10 2 -103 -52 -128 -76 -12 -11
-24 -17 -28 -14 -3 3 -8 -2 -12 -11 -3 -9 -10 -13 -15 -10 -5 3 -12 -2 -15
-10 -3 -9 -10 -16 -15 -16 -12 0 -133 -89 -137 -101 -2 -5 -8 -9 -13 -9 -5 0
-19 -9 -31 -19 -70 -61 -84 -71 -90 -71 -5 0 -8 -7 -8 -15 0 -8 -4 -14 -8 -13
-5 2 -20 -7 -33 -19 -115 -106 -168 -161 -161 -167 4 -4 2 -6 -3 -4 -6 1 -30
-16 -52 -39 -23 -24 -41 -43 -39 -43 2 0 -10 -15 -28 -32 -17 -18 -47 -52 -66
-76 -19 -24 -50 -60 -67 -80 -18 -20 -33 -40 -33 -43 0 -3 -11 -19 -25 -35
-14 -16 -35 -45 -47 -64 -12 -19 -25 -37 -29 -40 -10 -8 -80 -119 -78 -126 0
-4 -3 -10 -8 -13 -8 -5 -31 -42 -86 -136 -10 -16 -28 -50 -40 -75 -12 -25 -25
-46 -29 -48 -5 -2 -8 -12 -8 -22 0 -9 -7 -23 -15 -30 -9 -7 -14 -19 -11 -27 3
-7 2 -13 -3 -13 -5 0 -28 -46 -51 -102 -24 -57 -51 -122 -61 -145 -10 -24 -15
-43 -12 -43 3 0 1 -6 -4 -12 -10 -13 -50 -127 -57 -164 -2 -10 -9 -32 -15 -47
-6 -16 -9 -32 -6 -37 3 -5 1 -10 -5 -12 -5 -1 -11 -16 -14 -33 -2 -16 -6 -37
-10 -45 -5 -12 -19 -74 -41 -180 -5 -28 -17 -103 -21 -137 -2 -18 -6 -48 -9
-65 -32 -219 -38 -641 -11 -838 23 -167 24 -170 31 -220 4 -25 9 -53 11 -62 2
-10 6 -28 9 -40 15 -74 27 -125 32 -138 3 -8 7 -24 8 -35 5 -34 37 -139 46
-151 5 -6 6 -13 4 -16 -3 -3 0 -18 6 -34 7 -16 13 -31 14 -34 0 -3 9 -30 20
-60 11 -30 20 -57 20 -60 1 -3 7 -18 14 -35 7 -16 19 -46 26 -65 23 -63 133
-298 145 -310 3 -3 19 -31 35 -62 17 -32 33 -58 37 -58 5 0 7 -4 5 -9 -2 -10
61 -116 86 -142 9 -11 17 -22 17 -26 0 -5 12 -21 27 -37 16 -17 22 -26 14 -21
-21 12 165 -230 220 -287 25 -27 44 -50 42 -51 -2 -2 12 -17 29 -34 18 -17 53
-52 78 -79 25 -27 48 -48 51 -47 3 1 12 -9 19 -22 7 -14 17 -25 21 -25 5 0 23
-16 40 -35 18 -19 35 -32 40 -30 4 3 10 -4 14 -15 3 -11 10 -20 14 -20 5 0 26
-16 47 -36 61 -55 214 -169 225 -167 5 2 9 -1 9 -7 0 -10 79 -67 94 -68 5 0
12 -5 15 -10 16 -25 275 -175 285 -165 3 3 6 1 6 -6 0 -12 67 -47 83 -43 4 1
7 -2 7 -6 0 -9 91 -48 102 -44 5 1 8 -2 8 -6 0 -5 19 -16 43 -26 23 -9 62 -26
87 -37 25 -11 52 -21 60 -23 8 -1 32 -10 53 -19 21 -9 45 -18 55 -19 9 -2 19
-6 22 -9 6 -7 321 -97 370 -105 8 -2 26 -5 40 -7 14 -2 32 -7 40 -10 8 -3 31
-8 50 -11 19 -2 44 -7 55 -9 11 -2 46 -8 79 -12 32 -3 68 -8 80 -10 151 -26
691 -25 816 0 14 3 45 8 70 10 25 3 56 8 70 11 14 2 39 7 55 10 75 13 263 56
295 66 45 15 54 18 90 25 16 3 30 8 30 12 0 4 12 8 28 9 15 1 29 7 30 12 2 6
8 8 13 5 5 -4 23 1 41 9 18 8 51 20 73 28 22 7 43 17 46 21 3 5 9 8 13 7 8 -2
57 15 112 41 23 10 46 19 51 19 6 0 16 7 23 15 7 9 15 13 18 11 2 -3 23 4 46
16 22 11 43 20 45 19 2 -2 7 1 10 6 3 5 30 20 59 33 28 14 52 28 52 32 0 5 8
8 18 8 9 0 29 11 44 24 14 14 28 23 30 20 3 -2 20 6 39 19 19 12 62 40 97 61
34 20 62 42 62 47 0 5 3 8 8 7 11 -4 122 74 122 85 0 6 3 8 6 4 3 -3 15 3 27
13 12 11 59 48 104 83 46 35 80 67 76 71 -3 3 -1 6 6 6 7 0 32 20 57 44 24 25
44 43 44 41 0 -5 137 133 198 198 23 25 42 51 42 58 0 7 3 9 6 6 5 -5 44 41
152 178 62 80 120 169 115 178 -3 5 -1 7 4 4 6 -4 17 6 25 21 8 15 24 44 37
64 12 20 22 40 21 44 -1 4 3 10 8 13 22 15 186 334 194 378 2 10 8 23 13 29 6
6 20 38 30 70 11 33 22 61 25 64 6 6 50 139 54 162 1 10 5 21 9 24 4 4 7 17 7
29 0 12 3 25 7 29 4 3 8 12 9 19 5 25 12 54 29 117 9 36 18 76 20 90 2 14 4
25 5 25 2 0 3 8 20 105 12 66 16 93 25 165 3 22 7 58 10 80 29 224 23 627 -12
855 -3 25 -6 48 -5 52 2 8 -24 153 -28 153 -1 0 -3 14 -5 30 -2 17 -6 41 -9
55 -3 14 -9 39 -12 55 -3 17 -9 35 -12 40 -4 6 -7 15 -7 20 -2 30 -18 95 -23
95 -4 0 -8 14 -9 32 -1 17 -7 35 -14 38 -6 4 -10 9 -8 11 5 9 -13 79 -21 79
-4 0 -7 8 -6 18 2 9 -1 24 -5 32 -10 17 -54 135 -64 168 -3 12 -11 22 -16 22
-6 0 -8 4 -5 8 3 5 -8 34 -23 65 -16 31 -27 57 -26 57 4 0 -60 124 -112 220
-20 36 -40 67 -44 68 -5 2 -7 8 -3 13 3 5 0 9 -5 9 -6 0 -11 4 -11 10 0 15
-131 212 -159 239 -14 13 -20 21 -12 16 7 -4 3 6 -10 24 -12 17 -26 31 -31 31
-4 0 -8 6 -8 14 0 8 -13 25 -29 39 -17 14 -28 27 -26 29 3 3 -19 30 -48 61
-29 32 -51 60 -48 62 2 3 -3 5 -12 5 -10 0 -16 6 -15 13 2 6 -3 11 -10 9 -8
-1 -11 2 -8 7 7 11 -284 292 -296 285 -4 -3 -8 3 -8 12 0 10 -3 15 -6 12 -3
-3 -15 4 -27 16 -39 37 -112 96 -120 96 -4 0 -20 11 -35 24 -15 14 -31 26 -37
28 -5 2 -19 12 -31 23 -12 12 -35 27 -51 35 -15 8 -32 20 -38 26 -5 6 -26 20
-45 30 -19 11 -38 24 -42 29 -4 6 -8 6 -8 2 0 -5 -7 -1 -16 7 -8 9 -20 13 -26
10 -6 -4 -9 -3 -5 2 3 5 -29 27 -71 49 -42 22 -80 45 -84 50 -4 6 -8 6 -8 1 0
-5 -8 -3 -17 5 -20 16 -87 54 -90 52 -1 -1 -40 15 -85 36 -88 41 -158 66 -170
63 -5 -1 -8 2 -8 6 0 7 -73 35 -90 34 -3 0 -14 5 -25 10 -22 13 -229 74 -275
83 -8 1 -22 5 -30 7 -22 8 -106 26 -175 38 -33 5 -69 12 -81 14 -12 2 -43 7
-70 10 -27 4 -65 9 -84 11 -99 13 -564 28 -573 18z"/>
<path d="M1294 11084 c-5 -2 -67 -4 -137 -6 -91 -3 -131 -8 -136 -17 -5 -7
-11 -12 -15 -11 -4 0 -21 -10 -37 -24 -17 -15 -28 -26 -25 -26 3 0 -6 -12 -19
-26 -14 -15 -25 -33 -25 -40 0 -8 -5 -14 -12 -14 -6 0 -8 -3 -5 -6 3 -4 2 -15
-4 -25 -13 -24 -21 -243 -21 -549 0 -787 2 -971 12 -965 6 4 8 11 5 16 -4 5
-1 9 5 9 7 0 385 373 842 829 766 766 827 831 808 841 -15 8 -200 12 -624 14
-332 1 -607 1 -612 0z"/>
<path d="M10778 2572 c-79 -77 -155 -152 -170 -166 -16 -14 -28 -30 -28 -36 0
-6 -4 -8 -10 -5 -5 3 -10 -2 -10 -11 0 -10 -3 -15 -6 -12 -3 4 -102 -89 -221
-205 -118 -117 -325 -320 -459 -452 -134 -132 -244 -239 -244 -239 0 1 -16
-13 -35 -32 -19 -18 -35 -38 -35 -45 0 -7 -3 -10 -6 -6 -8 8 -34 -18 -34 -34
0 -7 -3 -10 -6 -7 -3 3 -65 -52 -137 -124 l-132 -130 29 -23 c38 -30 32 -30
871 -30 l660 0 35 22 c68 42 121 139 126 228 4 70 6 879 4 1164 -2 187 -6 218
-37 265 -11 18 -23 9 -155 -122z"/>
</g>
</svg>
